<svg width="415" height="415" viewBox="0 0 415 415" fill="none" xmlns="http://www.w3.org/2000/svg">
<rect width="415" height="415" fill="#303030"/>
<path d="M261.015 198V110.943V78.4592C260.793 68.9305 262.881 49.6134 273.007 48.574C283.132 47.5345 297.211 48.1408 302.984 48.574C307.204 47.2746 315.508 51.4325 314.976 78.4592C314.443 105.486 314.753 169.414 314.976 198" stroke="white" stroke-width="30" stroke-linecap="round"/>
<path d="M191 102L192.012 186" stroke="white" stroke-width="30" stroke-linecap="round"/>
<ellipse cx="282" cy="279" rx="133" ry="130" fill="#303030"/>
<path d="M68 48.1424C105.493 46.6228 121.622 57.6401 125 63.3386V319.775C117.822 326.107 96.3733 338.391 68 336.871" stroke="white" stroke-width="35" stroke-linecap="round"/>
<line x1="67.3852" y1="51.614" x2="65.5421" y2="333.614" stroke="white" stroke-width="35" stroke-linecap="round"/>
<mask id="path-7-outside-1_1_22" maskUnits="userSpaceOnUse" x="161" y="162" width="212" height="239" fill="black">
<rect fill="white" x="161" y="162" width="212" height="239"/>
<path d="M342.933 344.786C330.486 357.303 314.627 365.827 297.363 369.28C280.099 372.734 262.204 370.961 245.941 364.187C229.679 357.413 215.779 345.942 205.999 331.224C196.22 316.505 191 299.201 191 281.5C191 263.799 196.22 246.495 205.999 231.776C215.779 217.058 229.679 205.587 245.941 198.813C262.204 192.039 280.099 190.266 297.363 193.72C314.627 197.173 330.486 205.697 342.932 218.214L280 281.5L342.933 344.786Z"/>
</mask>
<path d="M342.933 344.786C330.486 357.303 314.627 365.827 297.363 369.28C280.099 372.734 262.204 370.961 245.941 364.187C229.679 357.413 215.779 345.942 205.999 331.224C196.22 316.505 191 299.201 191 281.5C191 263.799 196.22 246.495 205.999 231.776C215.779 217.058 229.679 205.587 245.941 198.813C262.204 192.039 280.099 190.266 297.363 193.72C314.627 197.173 330.486 205.697 342.932 218.214L280 281.5L342.933 344.786Z" stroke="white" stroke-width="60" stroke-linejoin="round" mask="url(#path-7-outside-1_1_22)"/>
<ellipse cx="288" cy="281.5" rx="89" ry="89.5" fill="#303030"/>
<line x1="261" y1="95" x2="315" y2="95" stroke="white" stroke-width="30"/>
<path d="M187 60.2975L195 56" stroke="white" stroke-width="30" stroke-linecap="round"/>
</svg>
